<svg id="Layer_1" data-name="Layer 1" xmlns="http://www.w3.org/2000/svg" viewBox="0 0 677.15 725.44"><defs><style>.cls-1{fill:#9cc1e6;fill-opacity:0.3;}</style></defs><title>Element 1</title><path class="cls-1" d="M24.38,483.91c-37.19-36.22-106.14-43.12-123.12-92.18s26.9-98.51,39.69-149C-47.93,199-51.14,151.3-27.92,112.5-4.57,73.5,38,52.33,72.57,22.89,112-10.6,142.09-57.92,191.26-73.87,242.2-90.39,298.87-83.73,349.75-67,400.9-50.22,454-24.13,482.29,21.7c28,45.43,2.7,106.1,18.91,157,15.52,48.71,72.65,81.4,73.34,132.52.68,50.57-35.82,95.1-69.79,132.57-31.58,34.83-81.75,44.13-117.81,74.31-42.22,35.34-59.83,101.59-112.29,118.28-51.28,16.33-110-4.89-156-32.88C74.76,576.72,61.2,519.77,24.38,483.91Z" transform="translate(102.6 83.41)"/></svg>