<svg id="Layer_1" data-name="Layer 1" xmlns="http://www.w3.org/2000/svg" viewBox="0 0 149 277"><defs><style>.cls-1{fill:#93d4cb;}.cls-2{fill:#5ac2b0;}.cls-12,.cls-13,.cls-14,.cls-15,.cls-16,.cls-17,.cls-18,.cls-3,.cls-7,.cls-9{fill:none;stroke-linecap:round;stroke-linejoin:round;}.cls-3{stroke:#247767;}.cls-12,.cls-13,.cls-14,.cls-15,.cls-16,.cls-18,.cls-3,.cls-9{stroke-width:1.7px;}.cls-4{fill:#f37e89;}.cls-5{fill:#2fa58f;}.cls-6{fill:#6a3517;}.cls-7{stroke:#000;}.cls-17,.cls-7{stroke-width:3.41px;}.cls-8{fill:#90425b;}.cls-9{stroke:#90425b;}.cls-10{fill:#fff;}.cls-11{fill:#f7d167;}.cls-12{stroke:#816770;}.cls-13{stroke:#915f6f;}.cls-14{stroke:#8b5e6d;}.cls-15{stroke:#abdaf1;}.cls-16{stroke:#fff;}.cls-17{stroke:#c9c9c9;}.cls-18{stroke:#7d7d7d;}</style></defs><title>doctor-man</title><path d="M251.29,342.61l2.2,11.21-12.58,5.88-5.29-11.61Z" transform="translate(-134 -95)"/><path d="M246.15,372l-6.5-15s7.35-3.38,13.3-5.82c9.31,1.39,23.4.59,28.07-.38,1.27,3.16,2,5.31,2,5.31Z" transform="translate(-134 -95)"/><path d="M159.92,343.83l-5.41,5-11.7-8.61,4.13-5.46Z" transform="translate(-134 -95)"/><path d="M143.84,338.85,134,351.77l21.11,16.58H176l0-5.48s-14.79-2.68-14.74-2.64c-3.06-3.64-5.55-12.44-5.55-12.44Z" transform="translate(-134 -95)"/><path class="cls-1" d="M180.34,224.41s-6.86,50.7-9.29,56.16-26,54.55-26,54.55l17,12.21s37.88-57.15,39.59-60.21c1.11-2,4.07-13.63,4.07-13.63L234.92,353l19.33-8.84L234,226.45Z" transform="translate(-134 -95)"/><path class="cls-2" d="M200.89,225.2l15.19.57-.11,3.67Zm14.81,13.88L214,295.85l-8.21-22.3Z" transform="translate(-134 -95)"/><path class="cls-3" d="M205.73,273.55l11.4-39.74" transform="translate(-134 -95)"/><path class="cls-3" d="M162.11,320.27,178,290.92c-3.1-3.14-4.4-6.49,2.7-2.51,5.27,2.94,6.15,1.94,1.53-3.15-6.21-6.85-5.13-7.78,1-6.8" transform="translate(-134 -95)"/><path class="cls-3" d="M181.91,276s5.1-35.85,6.58-40.27" transform="translate(-134 -95)"/><path class="cls-3" d="M234.72,317.9c-.57-2.41-3.61-23.84-5.5-24.37-9-2.5-10.62-6-2-8.46,8.41-2.4,8.38-3.13.8-5.44-7.77-2.37-6.24-3.62-1.25-8.08,1.69-1.51-6.06-20.4-6.5-22.24" transform="translate(-134 -95)"/><path class="cls-4" d="M167.09,188c0-2.95-.59-8.21.73-11.37s10-1.8,10-1.8S167,190.93,167.09,188Z" transform="translate(-134 -95)"/><path class="cls-5" d="M202.9,137.15c-19.74,0-35.85,10-36,25.18A75.29,75.29,0,0,1,165,178.69l17.51,4.36s-6.08,41.78-4,43.54c6.35,5.23,50.88,7,56.41,1.28.49-7-3.8-25.83-3.8-25.83s13.59-32.06,6.23-47.18c-7-14.33-25.33-16.91-33.46-17.19C203.53,137.66,203.28,137.15,202.9,137.15Z" transform="translate(-134 -95)"/><path class="cls-6" d="M191.2,111.07C191.08,104.3,198,95,207.94,95c7.8,0,15.77,3.71,16,9.75.4-2.49.79-4,.51-5.41,1.68-.09,5.06,4.26,5.06,10.06,0,2.24-1.74,10.71-6.71,10.61s-24,6.69-24,6.69-1.24,1.83-2.93,1.69-4.86-3.29-4.89-5,1.55-4.87,1.53-5.84S191.32,117.83,191.2,111.07Z" transform="translate(-134 -95)"/><path class="cls-7" d="M215,156.86l3.51,12.77" transform="translate(-134 -95)"/><path class="cls-4" d="M224.9,119.76a14.8,14.8,0,1,0-4.33,10.47,14.82,14.82,0,0,0,4.33-10.47Z" transform="translate(-134 -95)"/><path class="cls-6" d="M225.61,114.14s-2-.39-4.91-4.72a34.17,34.17,0,0,1-14.77-.89c-.06,3.09-2.33,8.15-5.44,7.59s-4.4-8.08-4.4-8.08l7.35-7.68,11.11.07,7.82,5.52Z" transform="translate(-134 -95)"/><path class="cls-8" d="M221.2,118c.14-1.18-.24-2.19-.83-2.26s-1.19.83-1.33,2,.24,2.19.83,2.26S221.05,119.18,221.2,118Z" transform="translate(-134 -95)"/><path class="cls-4" d="M195.17,122.85c.38,2.35,1.14,13.54-.07,15.92,2.71,2.73,10.63,3.9,14.79,2.72a14.27,14.27,0,0,1,1.72-7.68C212.33,132.52,194.8,120.49,195.17,122.85Z" transform="translate(-134 -95)"/><path class="cls-8" d="M211.32,116.19c.13-1.18-.24-2.19-.83-2.27s-1.19.84-1.32,2,.23,2.19.82,2.26S211.18,117.37,211.32,116.19Z" transform="translate(-134 -95)"/><path class="cls-9" d="M216.24,118.4c-.12,1.39,1,6.66,1.24,7.47s-1,1.12-1,1.12" transform="translate(-134 -95)"/><path class="cls-10" d="M224.16,124.41c-.07,1.48-3.57,9.12-5.63,10.29s-17.59,1-21.16-6.67c2.93-.45,4.91-2.94,7.23-8.27,5.18.77,11.05,0,12,0S220.12,123.32,224.16,124.41Z" transform="translate(-134 -95)"/><path class="cls-5" d="M193.16,152.62c-8.12-.16-24.23-1.15-25.85,5.74s-3.15,18.7-2.27,20.32,17.43,3.67,17.43,3.67C183.78,179,191,160.35,193.16,152.62Z" transform="translate(-134 -95)"/><path class="cls-4" d="M175.82,198.29C180.3,199,206.7,180.6,210,181s11.67,0,11.67,0,4.78-18.33-5.42-19c-.63,0-4.36,3.28-4.36,3.28a2,2,0,0,0-1.76.27c-1.32,1.08-5.61,6-7.76,6.73-3.61,1.3-32.9,6.85-34.31,9.18S165.09,196.55,175.82,198.29Z" transform="translate(-134 -95)"/><path class="cls-11" d="M246,170H225.5a7.11,7.11,0,0,0-6,3.92l-14.41,32.76c-1,2.16.19,3.92,2.56,3.92h20.47a7.12,7.12,0,0,0,6-3.92l14.41-32.77C249.48,171.76,248.34,170,246,170Z" transform="translate(-134 -95)"/><path class="cls-4" d="M246.48,196.63c1-2.52,1.67-6,.31-8.22s-6.64-9.09-8.83-9.22-7.79,6-8.39,7.93a14.52,14.52,0,0,0,.56,8.1c.94,1.84,4.72,5.43,6.62,5.5S245.91,198.17,246.48,196.63Z" transform="translate(-134 -95)"/><path class="cls-4" d="M247,191.6c.27-4.07,2-8.47,3.24-11.45.8-2,.21-3.69-1.15-4.08s-5.57,5.17-5.69,9.47S246.75,195.65,247,191.6Z" transform="translate(-134 -95)"/><path class="cls-12" d="M247.27,189.53a23,23,0,0,0-3.85-5.9" transform="translate(-134 -95)"/><path class="cls-13" d="M241.84,190.19c0-2.19-4.45-8.56-6.11-9.34" transform="translate(-134 -95)"/><path class="cls-14" d="M237.47,192.76c-.05-1.06-3.51-6.84-5.5-8" transform="translate(-134 -95)"/><path class="cls-15" d="M229.34,158.86a32.1,32.1,0,0,1-.19,11.14" transform="translate(-134 -95)"/><path class="cls-15" d="M203.58,168.17l-12.91.26" transform="translate(-134 -95)"/><path class="cls-4" d="M210.85,138.33c.18,1.89,2.42,14.11-5.12,14.11-4.85,0-12.38-11.29-11.19-14.66" transform="translate(-134 -95)"/><path class="cls-15" d="M210.85,138.33c.18,1.89,2.42,14.11-5.12,14.11-4.85,0-12.38-11.29-11.19-14.66" transform="translate(-134 -95)"/><path class="cls-4" d="M202.35,118.1a5.65,5.65,0,0,0-.95-3.14,5.61,5.61,0,0,0-5.78-2.4,5.64,5.64,0,1,0,6.73,5.54Z" transform="translate(-134 -95)"/><path class="cls-16" d="M204.54,119.88s-3.56-6.51-7.33-7.4" transform="translate(-134 -95)"/><path class="cls-16" d="M197.39,128.08l-2.76-4.76" transform="translate(-134 -95)"/><path class="cls-15" d="M184.72,176.56c2.16-5.67,5.26-14,7.22-19.95" transform="translate(-134 -95)"/><path class="cls-17" d="M223.73,126c-1,2.76-3.56,7.8-5.21,8.73-.65.38-2.67.61-5.25.52" transform="translate(-134 -95)"/><path class="cls-18" d="M244.94,369.19,282,353.25" transform="translate(-134 -95)"/><path class="cls-18" d="M176,366l-19.79-.69-20.3-16" transform="translate(-134 -95)"/></svg>