<svg id="Layer_1" data-name="Layer 1" xmlns="http://www.w3.org/2000/svg" viewBox="0 0 688.1 626.05"><defs><style>.cls-1{fill:#93d4cb;fill-opacity:0.3;}</style></defs><title>Element3</title><path class="cls-1" d="M188.51-19.44c68.95-20.18,151.55-81.68,207.12-36.14,56.73,46.49-14.25,145.32,10.42,214.4,26,72.92,161.17,112.53,131.93,184.23-30.27,74.24-159.75,11.73-228.6,52.81-57.84,34.51-55.48,139.55-120.87,155.71C124.64,567.34,70.21,504,14.76,468.64c-59.6-38-155.8-60-160.58-130.51C-150.93,262.57-48.31,229-5.7,166.4,20.41,128,20.51,76.5,54,44.42,90.79,9.25,139.69-5.15,188.51-19.44Z" transform="translate(146 72)"/></svg>