<svg id="Layer_1" data-name="Layer 1" xmlns="http://www.w3.org/2000/svg" viewBox="0 0 677.15 725.44"><defs><style>.cls-1{fill:#93d4cb;fill-opacity:0.3;}</style></defs><title>Element1</title><path class="cls-1" d="M2.38,435.91c-37.19-36.22-106.14-43.12-123.12-92.18s26.9-98.51,39.69-149C-69.93,151-73.14,103.3-49.92,64.5-26.57,25.5,16,4.33,50.57-25.11,90-58.6,120.09-105.92,169.26-121.87c50.94-16.52,107.61-9.86,158.49,6.85C378.9-98.22,432-72.13,460.29-26.3c28,45.43,2.7,106.1,18.91,157,15.52,48.71,72.65,81.4,73.34,132.52.68,50.57-35.82,95.1-69.79,132.57-31.58,34.83-81.75,44.13-117.81,74.31-42.22,35.34-59.83,101.59-112.29,118.28-51.28,16.33-110-4.89-156-32.88C52.76,528.72,39.2,471.77,2.38,435.91Z" transform="translate(124.6 131.41)"/></svg>