<svg id="Layer_1" data-name="Layer 1" xmlns="http://www.w3.org/2000/svg" viewBox="0 0 484.21 655.02"><defs><style>.cls-1{fill:#93d4cb;fill-opacity:0.3;}</style></defs><title>Element2</title><path class="cls-1" d="M214.1-98.51c68-22.31,128.54,67.39,164.9,129,29.53,50,8.46,111.65,11.36,169.69,2,39.42-.39,76.14,2.89,115.48,6.37,76.5,83.59,173.24,25.34,223.24-56,48.06-137-39.55-204.49-69.49-39-17.29-69.42-43.92-104.77-67.76C72.2,376.6,26.25,364,2,326.35-26.5,281.92-60.15,223-35.38,176.39c25.51-48.06,111.52-18.21,148.09-58.5C167.58,57.42,136.51-73,214.1-98.51Z" transform="translate(44 102)"/></svg>